<svg width="16" height="16" viewBox="0 0 16 16" fill="none" xmlns="http://www.w3.org/2000/svg">
<path d="M10.891 2.61345L13.3865 5.10895M4.50001 4.5H1.875C1.39175 4.5 1 4.89175 1 5.375V14.125C1 14.6082 1.39175 15 1.875 15H11.5C11.9833 15 12.375 14.6082 12.375 14.125V10.1875M14.4829 1.51708C14.6468 1.6809 14.7769 1.87541 14.8656 2.0895C14.9543 2.3036 15 2.53308 15 2.76483C15 2.99658 14.9543 3.22606 14.8656 3.44015C14.7769 3.65425 14.6468 3.84876 14.4829 4.01258L8.4944 10.0011L5.37501 10.625L5.99889 7.50563L11.9874 1.51708C12.1512 1.35315 12.3457 1.22311 12.5598 1.13439C12.7739 1.04567 13.0034 1 13.2352 1C13.4669 1 13.6964 1.04567 13.9105 1.13439C14.1246 1.22311 14.3191 1.35315 14.4829 1.51708Z" stroke="#383838" stroke-width="1.5" stroke-linecap="round" stroke-linejoin="round"/>
</svg>
