<svg width="18" height="18" viewBox="0 0 18 18" fill="none" xmlns="http://www.w3.org/2000/svg">
<path fill-rule="evenodd" clip-rule="evenodd" d="M8.29289 0.292893C8.68342 -0.0976311 9.31658 -0.0976311 9.70711 0.292893L15.7071 6.29289L17.7071 8.29289C18.0976 8.68342 18.0976 9.31658 17.7071 9.70711C17.3166 10.0976 16.6834 10.0976 16.2929 9.70711L16 9.41421V16C16 17.1046 15.1046 18 14 18H11C10.4477 18 10 17.5523 10 17V14H8V17C8 17.5523 7.55228 18 7 18H4C2.89543 18 2 17.1046 2 16V9.41421L1.70711 9.70711C1.31658 10.0976 0.683417 10.0976 0.292893 9.70711C-0.0976311 9.31658 -0.0976311 8.68342 0.292893 8.29289L2.29289 6.29289L8.29289 0.292893Z" fill="black"/>
</svg>
