<svg width="20" height="20" viewBox="0 0 20 20" fill="none" xmlns="http://www.w3.org/2000/svg">
<path fill-rule="evenodd" clip-rule="evenodd" d="M0 10C0 4.47715 4.47715 0 10 0C15.5228 0 20 4.47715 20 10C20 15.5228 15.5228 20 10 20C4.47715 20 0 15.5228 0 10ZM11 5.75699C11 5.2047 10.5523 4.75699 9.99999 4.75699C9.4477 4.75699 8.99999 5.2047 8.99999 5.75699V8.99999H5.75699C5.2047 8.99999 4.75699 9.4477 4.75699 9.99999C4.75699 10.5523 5.2047 11 5.75699 11H8.99999V14.243C8.99999 14.7953 9.4477 15.243 9.99999 15.243C10.5523 15.243 11 14.7953 11 14.243V11H14.243C14.7953 11 15.243 10.5523 15.243 9.99999C15.243 9.4477 14.7953 8.99999 14.243 8.99999H11V5.75699Z" fill="#AFAFAF"/>
</svg>
