<svg width="11" height="14" viewBox="0 0 11 14" fill="none" xmlns="http://www.w3.org/2000/svg">
<path d="M5.59556 7.46873C6.73169 7.46873 7.65271 6.57365 7.65271 5.46951C7.65271 4.36537 6.73169 3.47029 5.59556 3.47029C4.45944 3.47029 3.53842 4.36537 3.53842 5.46951C3.53842 6.57365 4.45944 7.46873 5.59556 7.46873Z" stroke="#BFC1C4" stroke-linecap="round" stroke-linejoin="round"/>
<path d="M9.5727 8.09382H9.56516C10.0601 7.38874 10.3466 6.56518 10.3933 5.71284C10.44 4.8605 10.2451 4.01205 9.82998 3.25987C9.41484 2.5077 8.79531 1.88063 8.03884 1.44696C7.28237 1.01329 6.41797 0.789635 5.53976 0.800356C4.66155 0.811076 3.80321 1.05576 3.05819 1.50776C2.31316 1.95976 1.71003 2.60175 1.31446 3.36383C0.918894 4.1259 0.746053 4.97884 0.814762 5.82977C0.88347 6.6807 1.19109 7.49701 1.70414 8.18979H1.69316L1.78985 8.30374C1.85842 8.38838 1.92699 8.47101 1.99556 8.55098L5.59556 12.8L9.11328 8.63628C9.24563 8.49722 9.36928 8.35057 9.48356 8.19712L9.5727 8.09382Z" stroke="#BFC1C4" stroke-linecap="round" stroke-linejoin="round"/>
</svg>
