<svg width="19" height="19" viewBox="0 0 19 19" fill="none" xmlns="http://www.w3.org/2000/svg">
<path d="M2.29432 5.39798C4.24235 5.89688 4.55672 8.04813 5.31797 9.05298C6.32942 10.3881 7.27812 10.2131 8.33253 11.5499C10.0377 13.7119 9.57192 16.9381 9.57192 17.8825M17.0556 12.3333H16.1111C14.0247 12.3333 12.3333 14.0247 12.3333 16.1111V17.0556M6.27624 1.93715C6.27624 2.71362 6.38279 3.71848 7.70738 4.37316C9.03196 5.02783 10.4631 4.70544 10.4631 6.57812C10.4631 6.83864 10.4631 8.47439 12.326 8.47439C14.2389 8.50391 14.2389 6.88937 14.2389 6.57812C14.2389 5.9641 14.7367 5.72819 15.3507 5.72819H17.0556M18 9.5C18 14.1944 14.1944 18 9.5 18C4.80558 18 1 14.1944 1 9.5C1 4.80558 4.80558 1 9.5 1C14.1944 1 18 4.80558 18 9.5Z" stroke="#383838" stroke-width="1.5" stroke-linecap="round"/>
</svg>
